<svg width="113" height="113" viewBox="0 0 113 113" fill="none" xmlns="http://www.w3.org/2000/svg">
<path fill-rule="evenodd" clip-rule="evenodd" d="M112.5 68.2L56.5 61.2266L0.5 68.2L56.5 112.5L112.5 68.2Z" fill="#FCBF92"/>
<path fill-rule="evenodd" clip-rule="evenodd" d="M0.5 68.1997L56.5 85.1243V112.5L0.5 84.1261V68.1997Z" fill="#9D5025"/>
<path fill-rule="evenodd" clip-rule="evenodd" d="M112.5 68.1997L56.5 85.1243V112.5L112.5 84.1261V68.1997Z" fill="#F58534"/>
<path fill-rule="evenodd" clip-rule="evenodd" d="M7.731 44.1353H0.5V60.2283L7.731 61.5597L15.7684 52.9399L7.731 44.1367V44.1353Z" fill="#9D5025"/>
<path fill-rule="evenodd" clip-rule="evenodd" d="M15.7684 60.8933L7.73096 61.5583V44.1353H15.7684V60.8933Z" fill="#F58534"/>
<path fill-rule="evenodd" clip-rule="evenodd" d="M21.1877 24.0649L11.6677 25.8793V62.3913L21.1877 64.3877L29.9013 44.1339L21.1877 24.0635V24.0649Z" fill="#9D5025"/>
<path fill-rule="evenodd" clip-rule="evenodd" d="M29.8999 63.3895L21.1877 64.3877V24.0649L29.8999 25.0631V63.3895Z" fill="#F58534"/>
<path fill-rule="evenodd" clip-rule="evenodd" d="M39.7489 32.186L26.6057 33.5174V65.5368L39.7489 68.1996L53.6999 50.1088L39.7489 32.186Z" fill="#9D5025"/>
<path fill-rule="evenodd" clip-rule="evenodd" d="M48.6096 66.7016L39.749 68.1996V32.186L48.6096 32.851V66.7002V66.7016Z" fill="#F58534"/>
<path fill-rule="evenodd" clip-rule="evenodd" d="M56.5 3.146L47.6394 5.9754V69.6978L56.5 71.5108L65.3606 37.3284L56.5 3.146Z" fill="#9D5025"/>
<path fill-rule="evenodd" clip-rule="evenodd" d="M64.7026 66.7019L73.251 68.1999L86.3942 44.1353L73.251 20.2373L64.7026 21.5687V66.7019Z" fill="#9D5025"/>
<path fill-rule="evenodd" clip-rule="evenodd" d="M86.3942 44.1353L73.251 20.2373L64.7026 21.5687" fill="#9D5025"/>
<path fill-rule="evenodd" clip-rule="evenodd" d="M82.9348 63.3909L91.8122 64.3891L101.332 34.0175L91.8122 3.8125L82.9348 5.9755V63.3895V63.3909Z" fill="#9D5025"/>
<path fill-rule="evenodd" clip-rule="evenodd" d="M97.2317 60.8932L105.269 61.5582L112.5 31.5212L105.269 0.5L97.2317 2.4964V60.8932Z" fill="#9D5025"/>
<path fill-rule="evenodd" clip-rule="evenodd" d="M56.5 3.146L65.3606 5.9754V69.6978L56.5 71.5108V3.146ZM86.3942 22.9L73.251 20.2372V68.1998L86.3942 65.537V22.9ZM101.334 7.64L91.8136 3.8124V64.389L101.334 62.3912V7.64ZM112.5 4.1442L105.269 0.5V61.5596L112.5 60.2282V4.1442Z" fill="#F58534"/>
</svg>
