<svg width="202" height="243" viewBox="0 0 202 243" fill="none" xmlns="http://www.w3.org/2000/svg">
<path d="M16.2713 42.0515L0 50.1275V191.88L16.2713 199.913L16.3744 199.794V42.1624L16.2713 42.0515Z" fill="#8C3123"/>
<path d="M103.367 179.369L16.2715 199.948V42.0515L103.367 62.1776V179.369Z" fill="#E05243"/>
<path d="M64.0542 147.151L100.995 151.816L101.227 151.287L101.434 91.1558L100.995 90.6868L64.0542 95.2834V147.151Z" fill="#8C3123"/>
<path d="M100.996 179.6L185.72 199.99L185.849 199.786V42.188L185.711 42.0515L100.996 62.4164V179.6Z" fill="#8C3123"/>
<path d="M137.946 147.151L101.004 151.816V90.6868L137.946 95.2834V147.151Z" fill="#E05243"/>
<path d="M137.946 70.2026L101.005 76.8886L64.0635 70.2026L101.005 60.6086L137.998 70.2026" fill="#5E1F18"/>
<path d="M137.946 172.163L101.005 165.435L64.0635 172.163L101.005 182.397L137.998 172.163" fill="#F2B0A9"/>
<path d="M64.0542 70.2025L100.995 61.1287L101.296 61.0349V0.247312L100.995 0L64.0542 18.3352V70.2025Z" fill="#8C3123"/>
<path d="M137.946 70.2025L101.004 61.1287V0L137.946 18.3352V70.2025Z" fill="#E05243"/>
<path d="M100.995 242.366L64.0542 224.031V172.172L100.995 181.237L101.537 181.851L101.373 241.343L100.978 242.4" fill="#8C3123"/>
<path d="M100.996 242.366L137.937 224.031V172.172L100.996 181.237V242.366ZM185.72 42.0515L202 50.1275V191.88L185.72 199.956V42.0515Z" fill="#E05243"/>
</svg>
