<svg width="21" height="22" viewBox="0 0 21 22" fill="none" xmlns="http://www.w3.org/2000/svg">
<path d="M2.72163 0.875H0.945034C0.814328 0.875 0.70837 0.980958 0.70837 1.11166V20.8876C0.70837 21.0183 0.814328 21.1243 0.945034 21.1243H2.72163C2.85233 21.1243 2.95829 21.0183 2.95829 20.8876V1.11166C2.95829 0.980958 2.85233 0.875 2.72163 0.875Z" fill="#1E1E1E"/>
<path d="M7.22176 0.875H5.44516C5.31446 0.875 5.2085 0.980958 5.2085 1.11166V20.8876C5.2085 21.0183 5.31446 21.1243 5.44516 21.1243H7.22176C7.35246 21.1243 7.45842 21.0183 7.45842 20.8876V1.11166C7.45842 0.980958 7.35246 0.875 7.22176 0.875Z" fill="#1E1E1E"/>
<path d="M11.7219 0.875H9.94526C9.81456 0.875 9.7086 0.980958 9.7086 1.11166V20.8876C9.7086 21.0183 9.81456 21.1243 9.94526 21.1243H11.7219C11.8526 21.1243 11.9585 21.0183 11.9585 20.8876V1.11166C11.9585 0.980958 11.8526 0.875 11.7219 0.875Z" fill="#1E1E1E"/>
<path d="M16.2209 0.875H14.4443C14.3136 0.875 14.2076 0.980958 14.2076 1.11166V20.8876C14.2076 21.0183 14.3136 21.1243 14.4443 21.1243H16.2209C16.3516 21.1243 16.4575 21.0183 16.4575 20.8876V1.11166C16.4575 0.980958 16.3516 0.875 16.2209 0.875Z" fill="#1E1E1E"/>
<path d="M20.722 8.75H18.9454C18.8147 8.75 18.7087 8.85596 18.7087 8.98666V13.0132C18.7087 13.1439 18.8147 13.2498 18.9454 13.2498H20.722C20.8527 13.2498 20.9586 13.1439 20.9586 13.0132V8.98666C20.9586 8.85596 20.8527 8.75 20.722 8.75Z" fill="#1E1E1E"/>
</svg>
