<svg width="125" height="125" viewBox="0 0 125 125" fill="none" xmlns="http://www.w3.org/2000/svg">
<path fill-rule="evenodd" clip-rule="evenodd" d="M27.7769 114.467C38.055 121.334 50.1387 125 62.5 125C79.0695 124.979 94.9542 118.387 106.671 106.671C118.387 94.9542 124.979 79.0695 125 62.5C125 50.1387 121.334 38.055 114.467 27.7769C107.599 17.4988 97.8381 9.48803 86.4177 4.75756C74.9973 0.0270803 62.4307 -1.21063 50.3069 1.20095C38.1831 3.61252 27.0466 9.56507 18.3058 18.3058C9.56507 27.0466 3.61252 38.1831 1.20095 50.3069C-1.21063 62.4307 0.0270803 74.9973 4.75756 86.4177C9.48803 97.8381 17.4988 107.599 27.7769 114.467ZM31.0056 15.3652C40.3279 9.1362 51.2881 5.81148 62.5 5.81148C77.5282 5.83283 91.9347 11.8122 102.561 22.4387C113.188 33.0653 119.167 47.4718 119.189 62.5C119.189 73.7119 115.864 84.6721 109.635 93.9945C103.406 103.317 94.5522 110.583 84.1938 114.873C73.8353 119.164 62.4371 120.287 51.4406 118.099C40.4441 115.912 30.3432 110.513 22.4152 102.585C14.4871 94.6568 9.08807 84.5559 6.90073 73.5594C4.71339 62.5629 5.83601 51.1647 10.1266 40.8062C14.4173 30.4478 21.6832 21.5942 31.0056 15.3652ZM99.306 65.5675L89.6203 66.0518L79.7731 66.2671C77.0826 66.4823 74.3921 66.4823 71.7016 66.4823C74.15 67.5047 76.7059 68.6078 79.1543 69.7378L87.8983 73.7197C89.3918 74.4665 90.8853 75.1584 92.365 75.8439C93.8175 76.5168 95.2566 77.1836 96.6693 77.89L95.7546 80.1231C93.3082 79.322 90.914 78.4339 88.4741 77.5288C87.8818 77.309 87.2867 77.0883 86.6876 76.8676L77.6207 73.5045C76.0828 72.9541 74.5935 72.3647 73.0651 71.7598C72.0533 71.3594 71.0244 70.9521 69.9528 70.5449L75.549 76.3833L82.1676 83.4055L88.5979 90.8043L86.876 92.5262C85.5895 91.4152 84.311 90.2485 83.0189 89.0695C81.9329 88.0786 80.8373 87.0788 79.7193 86.0959L72.6164 79.4235L72.3097 79.133C70.3774 77.3027 68.5374 75.5598 66.6973 73.7197C67.7197 76.2488 68.7421 78.8047 69.6569 81.3607L73.1276 90.4276C74.2307 93.3872 75.3607 96.4543 76.3831 99.4946L74.15 100.409C73.327 98.8076 72.5763 97.1978 71.8321 95.6019C71.2138 94.2759 70.5999 92.9595 69.9528 91.6652L66.1592 82.8943C65.5316 81.5013 64.9301 80.1083 64.3201 78.6955C63.8579 77.6251 63.3908 76.5434 62.9037 75.4416C62.7154 78.1321 62.7154 80.8226 62.7154 83.5131L62.3925 93.1988C62.3134 94.5782 62.2485 95.9339 62.1839 97.2838C62.0947 99.146 62.0061 100.997 61.8813 102.885H59.2447C59.1642 101.493 59.0984 100.121 59.0327 98.7493C58.9447 96.913 58.8567 95.0779 58.7335 93.1988L58.4375 83.5131C58.2492 77.8092 58.2492 72.213 58.2492 66.4823C52.5185 66.4823 46.9222 66.4823 41.2184 66.294L31.5327 65.9711L21.8469 65.4868V62.7963C23.2387 62.7158 24.6109 62.6501 25.9823 62.5843C27.8186 62.4963 29.6536 62.4084 31.5327 62.2851L41.2184 61.9892H49.2899L49.2895 61.989C46.8413 60.9667 44.3931 59.9444 41.9449 58.8413L33.2008 54.8594C31.7073 54.1127 30.2138 53.4207 28.7342 52.7352C27.2817 52.0623 25.8425 51.3955 24.4298 50.6891L25.4522 48.1332C28.1769 49.0495 30.8368 50.0306 33.5674 51.0378C33.8836 51.1544 34.2008 51.2714 34.5191 51.3887L43.4784 54.8594C44.4465 55.2466 45.3992 55.6185 46.3423 55.9865C47.8891 56.5902 49.4101 57.1838 50.9311 57.8189C49.1015 55.9894 47.2451 54.0523 45.4156 52.1151L38.797 45.066C36.5639 42.7253 34.4115 40.3846 32.2591 37.9362L34.1963 35.9991C35.8024 37.3934 37.3737 38.8456 38.9255 40.2797C39.7393 41.0318 40.5477 41.7789 41.3529 42.5101L48.3751 49.1556C49.675 50.311 50.9263 51.5149 52.1943 52.7347C52.816 53.3327 53.4416 53.9346 54.0789 54.5365C53.0566 52.0882 52.0611 49.5591 51.1194 47.1108L47.6756 38.1246C47.4842 37.6097 47.2929 37.0972 47.102 36.586C46.1659 34.0789 45.2424 31.6054 44.3932 29.0576L46.9492 28.0353C47.6959 29.5287 48.3878 31.0222 49.0733 32.5018C49.7463 33.9543 50.413 35.3935 51.1194 36.8062L55.2089 45.6848C55.7201 46.909 56.2582 48.1332 56.7963 49.3574C57.3344 50.5815 57.8725 51.8057 58.3837 53.0299V44.9584L58.6797 35.2727C58.7598 33.8874 58.8253 32.5168 58.8907 31.1484C58.9791 29.3008 59.0672 27.4572 59.1909 25.5869H61.8813C61.989 27.2146 62.063 28.8222 62.1369 30.4297C62.2109 32.0373 62.2849 33.6449 62.3925 35.2727L62.6885 44.9584C62.9037 50.6622 62.9037 56.2854 62.9037 61.9892C64.9727 62.0282 67.0311 62.0531 69.0865 62.0779C72.6976 62.1216 76.2997 62.1651 79.9345 62.2851L89.6203 62.608C91.0056 62.6881 92.3763 62.7537 93.7448 62.8191C95.5923 62.9074 97.4358 62.9955 99.306 63.1192V65.5675Z" fill="#173361"/>
</svg>
