<svg width="123" height="137" viewBox="0 0 123 137" fill="none" xmlns="http://www.w3.org/2000/svg">
<path fill-rule="evenodd" clip-rule="evenodd" d="M0.708252 68.5C0.708252 74.4253 1.54167 80.145 2.95734 85.625H86.3333C95.792 85.625 103.458 77.9587 103.458 68.5C103.458 59.0413 95.792 51.375 86.3333 51.375H2.95734C1.54167 56.855 0.708252 62.5747 0.708252 68.5Z" fill="#353535"/>
<path fill-rule="evenodd" clip-rule="evenodd" d="M119.375 29.3751C120.482 28.1592 121.555 26.9034 122.583 25.619C110.03 10.0124 90.7986 0 69.2097 0C43.682 0 21.4652 13.9911 9.67749 34.6953H106.942C111.64 34.6953 116.201 32.84 119.375 29.3751Z" fill="#FFC100"/>
<path fill-rule="evenodd" clip-rule="evenodd" d="M107.334 102.75H9.94458C21.8008 123.203 43.8692 137 69.2085 137C90.7974 137 110.017 126.999 122.57 111.398C121.685 110.296 120.772 109.212 119.824 108.156C116.679 104.628 112.061 102.75 107.334 102.75Z" fill="#00C2B3"/>
</svg>
