<svg width="174" height="156" viewBox="0 0 174 156" fill="none" xmlns="http://www.w3.org/2000/svg">
<path d="M37.8987 147.11L2.30299 85.4538C0.934421 83.0834 0.213928 80.3945 0.213928 77.6573C0.213928 74.9202 0.934421 72.2313 2.30299 69.8609L37.8987 8.20634C39.2675 5.83556 41.2362 3.86688 43.6071 2.49818C45.9779 1.12949 48.6672 0.409011 51.4048 0.40918H122.596C125.334 0.409249 128.023 1.12984 130.393 2.49852C132.764 3.86721 134.732 5.83576 136.101 8.20634L171.697 69.8609C173.065 72.2314 173.786 74.9206 173.786 77.658C173.786 80.3954 173.065 83.0846 171.697 85.4552L136.101 147.11C134.732 149.48 132.763 151.448 130.393 152.817C128.022 154.185 125.333 154.906 122.596 154.906H51.4048C48.6672 154.906 45.9778 154.185 43.6069 152.817C41.2361 151.448 39.2674 149.481 37.8987 147.11Z" fill="url(#paint0_linear_2418_661)"/>
<path opacity="0.07" d="M164.367 98.7847L121.197 55.6169L113.253 57.2631L93.4511 37.4624L87.1144 49.3127L83.6782 63.0208L89.4942 68.8382L78.3233 71.119L63.0056 55.8013L52.6049 65.7993L71.756 84.9532L51.4563 101.09L105.959 155.591L132.511 155.334L164.367 98.7847Z" fill="black"/>
<path d="M116.181 68.0298C120.168 68.0298 123.4 64.7975 123.4 60.8103C123.4 56.8231 120.168 53.5908 116.181 53.5908C112.194 53.5908 108.961 56.8231 108.961 60.8103C108.961 64.7975 112.194 68.0298 116.181 68.0298Z" fill="white"/>
<path d="M57.8188 68.0298C61.806 68.0298 65.0383 64.7975 65.0383 60.8103C65.0383 56.8231 61.806 53.5908 57.8188 53.5908C53.8316 53.5908 50.5993 56.8231 50.5993 60.8103C50.5993 64.7975 53.8316 68.0298 57.8188 68.0298Z" fill="white"/>
<path d="M87.0005 118.575C90.9884 118.575 94.2213 115.342 94.2213 111.354C94.2213 107.366 90.9884 104.133 87.0005 104.133C83.0125 104.133 79.7796 107.366 79.7796 111.354C79.7796 115.342 83.0125 118.575 87.0005 118.575Z" fill="white"/>
<path d="M87.0005 89.3223C93.4426 89.3223 98.665 84.0999 98.665 77.6577C98.665 71.2156 93.4426 65.9932 87.0005 65.9932C80.5583 65.9932 75.3359 71.2156 75.3359 77.6577C75.3359 84.0999 80.5583 89.3223 87.0005 89.3223Z" fill="white"/>
<path d="M57.8188 103.669C62.8799 103.669 66.9828 99.566 66.9828 94.5049C66.9828 89.4437 62.8799 85.3408 57.8188 85.3408C52.7576 85.3408 48.6547 89.4437 48.6547 94.5049C48.6547 99.566 52.7576 103.669 57.8188 103.669Z" fill="white"/>
<path d="M116.181 103.669C121.242 103.669 125.345 99.566 125.345 94.5049C125.345 89.4437 121.242 85.3408 116.181 85.3408C111.12 85.3408 107.017 89.4437 107.017 94.5049C107.017 99.566 111.12 103.669 116.181 103.669Z" fill="white"/>
<path d="M87.0005 53.1272C92.0624 53.1272 96.1659 49.0237 96.1659 43.9618C96.1659 38.8999 92.0624 34.7964 87.0005 34.7964C81.9386 34.7964 77.8351 38.8999 77.8351 43.9618C77.8351 49.0237 81.9386 53.1272 87.0005 53.1272Z" fill="white"/>
<defs>
<linearGradient id="paint0_linear_2418_661" x1="87.0005" y1="0.410536" x2="87.0005" y2="154.665" gradientUnits="userSpaceOnUse">
<stop stop-color="#4387FD"/>
<stop offset="1" stop-color="#4683EA"/>
</linearGradient>
</defs>
</svg>
