<svg width="98" height="79" viewBox="0 0 98 79" fill="none" xmlns="http://www.w3.org/2000/svg">
<path d="M62.2 21.7398L65.33 21.7998L73.87 13.3198L74.29 9.71975C69.4269 5.38511 63.5361 2.36616 57.1774 0.949849C50.8187 -0.466462 44.2035 -0.233067 37.9604 1.62783C31.7173 3.48872 26.0539 6.9153 21.5083 11.5819C16.9628 16.2484 13.6862 22 11.99 28.2898C12.87 27.6498 14.87 28.1297 14.87 28.1297L31.87 25.3298C31.87 25.3298 32.75 23.8898 33.18 23.9798C36.8194 19.981 41.8497 17.5248 47.241 17.1139C52.6323 16.7031 57.9767 18.3687 62.18 21.7698L62.2 21.7398Z" fill="#EA4335"/>
<path d="M85.78 28.3202C83.8236 21.1301 79.8133 14.6663 74.24 9.72021L62.24 21.7202C64.7128 23.7074 66.7081 26.2242 68.0788 29.0851C69.4495 31.9459 70.1607 35.0779 70.16 38.2502V40.4402C71.5573 40.3941 72.95 40.6241 74.2584 41.117C75.5667 41.61 76.7649 42.3562 77.7844 43.3129C78.8039 44.2696 79.6247 45.418 80.1997 46.6924C80.7747 47.9667 81.0928 49.342 81.1355 50.7394C81.1782 52.1369 80.9449 53.529 80.4489 54.8362C79.9528 56.1433 79.2037 57.3397 78.2446 58.357C77.2854 59.3742 76.1351 60.1922 74.8593 60.7641C73.5836 61.3361 72.2075 61.6508 70.81 61.6902H48.87L46.75 63.8302V76.5202L48.87 78.6402H70.12C76.0021 78.6312 81.7277 76.7438 86.4622 73.2531C91.1966 69.7625 94.6925 64.8511 96.4404 59.2346C98.1883 53.6181 98.0968 47.5903 96.1792 42.0294C94.2616 36.4686 90.6182 31.6655 85.78 28.3202Z" fill="#4285F4"/>
<path d="M27.61 78.6401H48.8701V61.6401H27.61C26.0951 61.6255 24.6012 61.2844 23.23 60.6401L20.17 61.5801L11.6601 70.1301L10.92 73.0101C15.7146 76.6679 21.5796 78.6463 27.61 78.6401Z" fill="#34A853"/>
<path d="M27.61 23.3999C21.8278 23.4005 16.1918 25.2163 11.4969 28.5913C6.80191 31.9664 3.28504 36.7302 1.44232 42.2108C-0.400402 47.6915 -0.475974 53.6124 1.22628 59.1383C2.92854 64.6642 6.3227 69.5162 10.93 73.0099L23.25 60.6899C21.67 59.9939 20.2835 58.9232 19.2106 57.5705C18.1377 56.2179 17.4108 54.624 17.0928 52.927C16.7748 51.2301 16.8754 49.4812 17.3857 47.8318C17.8961 46.1825 18.8008 44.6824 20.0217 43.4616C21.2425 42.2408 22.7426 41.336 24.3919 40.8257C26.0413 40.3153 27.7901 40.2148 29.4871 40.5327C31.1841 40.8507 32.7779 41.5777 34.1306 42.6505C35.4833 43.7234 36.554 45.1099 37.25 46.6899L49.61 34.3199C47.0348 30.925 43.7085 28.1724 39.8916 26.2779C36.0748 24.3833 31.8711 23.3983 27.61 23.3999Z" fill="#FBBC04"/>
</svg>
