<svg width="64" height="64" viewBox="0 0 64 64" fill="none" xmlns="http://www.w3.org/2000/svg">
<path d="M47.202 15.1C37.852 6.974 23.702 7.842 15.426 17.05C7.15 26.258 7.76 40.42 16.824 48.865C18.942 50.769 20.739 51.695 22.324 51.695C25.394 51.695 27.686 48.263 30.649 43.933C32.4291 41.1677 34.4049 38.5333 36.561 36.05C38.8029 33.6516 41.2087 31.4119 43.761 29.347C47.568 26.143 50.558 23.623 50.611 20.794C50.638 19.078 49.511 17.214 47.191 15.11L47.202 15.1ZM37.3 28.716C35.8387 29.8555 34.4673 31.1059 33.198 32.456C31.9702 33.8907 30.8501 35.4141 29.847 37.014C28.332 39.306 27.26 40.954 25.825 40.954C25.3186 40.9267 24.8405 40.7117 24.484 40.351C22.3803 38.3276 21.1454 35.5657 21.04 32.6487C20.9347 29.7318 21.9673 26.888 23.9196 24.7182C25.8719 22.5483 28.5912 21.2222 31.503 21.0199C34.4149 20.8176 37.2914 21.7549 39.525 23.634C39.762 23.8131 39.9552 24.0437 40.09 24.3084C40.2247 24.5731 40.2976 24.865 40.303 25.162C40.223 26.315 39.016 27.321 37.3 28.716ZM32.013 2.56525e-06C14.34 -0.00699743 0.00700257 14.313 2.56525e-06 31.987C-0.00699743 49.661 14.313 63.993 31.987 64C49.661 64.007 63.993 49.687 64 32.013C64.0017 27.8107 63.1757 23.6492 61.5691 19.7661C59.9626 15.8831 57.6069 12.3545 54.6366 9.38178C51.6663 6.4091 48.1397 4.05056 44.2579 2.44083C40.3761 0.831104 36.2153 0.0017094 32.013 2.56525e-06ZM52.2 50.152C42.165 61.288 25.004 62.188 13.86 52.152C2.602 42.152 1.53 24.955 11.464 13.647C16.2355 8.21648 22.963 4.89588 30.1757 4.41111C37.3884 3.92634 44.4997 6.31683 49.955 11.06C61.312 20.937 62.555 38.133 52.735 49.54L52.2 50.152Z" fill="#80BC00"/>
</svg>
