<svg width="106" height="90" viewBox="0 0 106 90" fill="none" xmlns="http://www.w3.org/2000/svg">
<path opacity="0.7" d="M105.458 0.807129V13.4972V89.0234H84.9358V8.17554L91.2977 1.62584C91.5029 1.42116 91.9133 1.01181 92.3238 1.01181C92.7342 0.807129 93.1447 0.807129 93.5551 0.807129H105.458Z" fill="#472F85"/>
<path opacity="0.7" fill-rule="evenodd" clip-rule="evenodd" d="M74.059 60.1637C72.6224 58.3216 71.1859 56.4795 69.7493 55.0467C67.0815 52.3859 64.6188 49.7251 61.9509 47.269C60.7196 46.0409 59.283 44.6082 58.0517 43.3801V34.3742C58.0517 33.9649 58.0517 33.5555 58.2569 33.1462C58.4621 32.9415 58.4621 32.7368 58.6674 32.5321L78.5739 13.4971V14.5205V63.0292C78.5739 63.0292 78.5739 63.2339 78.5739 63.6432C78.5739 64.2573 78.5739 65.4853 78.5739 65.4853C77.1373 64.0526 75.7008 62.2105 74.059 60.1637Z" fill="#472F85"/>
<path d="M0.179123 24.3452V53.0002L36.5034 89.0235H65.2345L0.179123 24.3452Z" fill="#472F85"/>
<path d="M0.179123 89.0236H26.858L0.179123 62.6201V89.0236Z" fill="#472F85"/>
<path d="M74.8799 89.0234H103.406L17.4178 1.62584C17.2125 1.42116 16.8021 1.21649 16.3916 1.01181C16.1864 0.807129 15.776 0.807129 15.3655 0.807129H0.384338V13.4972L74.8799 89.0234Z" fill="#472F85"/>
</svg>
