<svg width="52" height="37" viewBox="0 0 52 37" fill="none" xmlns="http://www.w3.org/2000/svg">
<path d="M1.779 25.6602C1.779 25.6602 16.03 35.6002 16.898 36.0972C17.735 36.5922 18.96 36.7092 20.035 36.3012C21.111 35.8932 21.918 34.9602 22.157 34.0272C22.426 33.0942 25.683 16.3012 25.683 16.3012C25.713 16.0682 25.802 15.3982 25.443 14.7562C24.935 13.8822 23.8 13.4162 22.784 13.7062C22.2251 13.8685 21.7463 14.2323 21.44 14.7272C21.26 15.0472 20.932 15.5732 20.334 16.0392C19.886 16.3892 19.438 16.5932 19.229 16.6802C17.406 17.4102 15.374 16.7972 14.209 15.3402C13.492 14.4362 12.207 14.0862 11.071 14.5232C10.534 14.7327 10.0785 15.1093 9.77187 15.5975C9.46523 16.0856 9.32364 16.6594 9.368 17.2342C9.578 19.0422 8.532 20.8492 6.679 21.5782C5.73128 21.9409 4.68862 21.972 3.721 21.6662C3.511 21.6072 2.765 21.4332 2.018 21.8412C1.092 22.3072 0.614004 23.4152 0.853004 24.4062C1.032 25.0762 1.57 25.5142 1.779 25.6602Z" fill="#FF9538"/>
<path d="M25.533 3.88197C25.533 3.88197 30.613 20.266 30.971 21.141C31.33 22.045 32.226 22.861 33.331 23.181C34.437 23.502 35.662 23.24 36.439 22.657C37.216 22.074 50.333 10.733 50.333 10.733C50.74 10.3777 51.014 9.89458 51.11 9.36297C51.26 8.37197 50.632 7.32197 49.676 6.94297C49.1263 6.74126 48.5227 6.74126 47.973 6.94297C47.644 7.08897 47.046 7.29297 46.299 7.32197C45.702 7.35197 45.254 7.23497 45.015 7.17597C43.132 6.65097 41.877 4.96097 41.877 3.12397C41.8587 2.55039 41.6575 1.99771 41.3027 1.54666C40.9479 1.09561 40.4581 0.769848 39.905 0.616968C38.71 0.295967 37.485 0.791968 36.858 1.75397C35.871 3.32797 33.929 4.11497 32.017 3.58997C31.001 3.29897 30.164 2.68697 29.627 1.89997C29.477 1.72397 28.999 1.14097 28.163 0.995968C27.147 0.820968 26.041 1.40397 25.623 2.30797C25.294 3.00797 25.473 3.64797 25.533 3.88197Z" fill="#FF9538"/>
</svg>
