<svg width="149" height="147" viewBox="0 0 149 147" fill="none" xmlns="http://www.w3.org/2000/svg">
<path fill-rule="evenodd" clip-rule="evenodd" d="M33.9197 25.0864C32.5554 25.0797 31.1958 25.2469 29.8738 25.5839V25.8001C30.8463 27.2662 31.9313 28.6544 33.1192 29.9523C33.9197 31.5743 34.6337 33.1747 35.4559 34.7966L35.6505 34.602C36.4101 34.0104 37.007 33.2357 37.3855 32.3507C37.7639 31.4656 37.9113 30.499 37.8141 29.5414C37.2083 28.8278 37.1218 28.1141 36.6025 27.3788C35.9967 26.3624 34.6769 25.8434 33.8764 25.0432" fill="#5D87A1"/>
<path fill-rule="evenodd" clip-rule="evenodd" d="M137.21 113.041C130.534 112.574 123.836 113.54 117.564 115.874C116.028 116.479 113.605 116.479 113.41 118.404C114.211 119.226 114.319 120.567 115.033 121.648C116.415 123.997 118.194 126.09 120.29 127.833C122.454 129.455 124.617 131.055 126.781 132.483C130.719 134.905 135.176 136.332 139.027 138.754C141.191 140.181 143.484 141.998 145.712 143.512C146.816 144.334 147.53 145.674 148.936 146.15V145.826C148.244 144.918 148.027 143.663 147.335 142.604C146.643 141.544 145.301 140.679 144.285 139.662C141.309 135.721 137.748 132.257 133.726 129.39C130.481 127.227 123.384 124.113 122.064 120.372L121.87 120.177C124.243 119.837 126.582 119.287 128.858 118.534C132.298 117.625 135.349 117.842 138.984 116.933C140.606 116.522 142.229 116.003 143.852 115.506V114.598C142.013 112.781 140.715 110.272 138.789 108.629C133.542 104.055 127.95 99.8901 122.064 96.1723C118.927 94.1611 114.881 92.8418 111.528 91.1117C110.316 90.5062 108.304 90.2035 107.59 89.1871C105.93 86.7485 104.537 84.1383 103.436 81.4016C100.493 75.8437 97.6591 69.6587 95.1277 63.7764C93.6364 59.8375 91.9172 55.9888 89.9785 52.2496C79.5284 34.9487 68.191 24.6114 50.7742 14.4039C46.6687 12.4045 42.2967 11.0062 37.7926 10.2517C35.2612 10.1436 32.7299 9.94897 30.1985 9.84084C28.5633 8.77387 27.0085 7.58843 25.5468 6.29413C19.77 2.66094 4.88449 -5.23254 0.643862 5.19124C-2.1039 11.6791 4.68978 18.1669 7.00482 21.5838C8.97702 23.9357 10.7093 26.4786 12.1758 29.1746C12.8898 30.8831 13.0845 32.7213 13.7985 34.5379C15.2822 39.1574 17.0377 43.6851 19.056 48.0974C20.1508 50.2754 21.4016 52.3714 22.799 54.369C23.6211 55.4936 24.9626 55.991 25.352 57.8292C23.924 59.8404 23.8159 62.8681 23.0154 65.3983C19.359 76.8385 20.8518 91.0253 25.9579 99.4162C27.5589 101.946 31.4101 107.526 36.581 105.385C41.1462 103.568 40.1293 97.7942 41.4491 92.7337C41.752 91.5226 41.4491 90.7225 42.1415 89.9007V90.117C43.5694 92.9284 44.9759 95.6749 46.2957 98.5079C49.9179 103.716 54.3688 108.297 59.4718 112.067C61.895 113.884 63.7991 117.02 66.8497 118.144V117.842H66.655C65.9748 117.058 65.1882 116.374 64.3182 115.809C62.4037 113.929 60.6454 111.897 59.0607 109.732C54.7724 103.926 50.98 97.7694 47.7236 91.328C46.1009 88.1706 44.6945 84.7321 43.3964 81.5963C42.7906 80.3852 42.7906 78.5686 41.7737 77.9631C39.9017 80.0686 38.269 82.375 36.9056 84.8402C34.98 89.1654 34.742 94.5503 34.0713 100.13C33.6602 100.238 33.8766 100.13 33.6602 100.324C30.4365 99.5243 29.333 96.1723 28.0998 93.3609C24.9417 84.6659 24.6236 75.1937 27.1911 66.3066C27.8835 64.144 30.9341 57.5048 29.7225 55.4935C29.1167 53.5688 27.083 52.4659 25.9795 50.9305C24.5646 48.8843 23.3407 46.7125 22.3231 44.4426C19.8998 38.7766 18.6665 32.4834 16.0486 26.8174C14.5885 24.0813 12.8947 21.4765 10.9859 19.0319C8.88208 16.5812 7.01315 13.9385 5.40378 11.1384C4.90616 10.0139 4.19219 8.19724 5.01435 6.98618C5.07349 6.6434 5.24273 6.32922 5.49648 6.09119C5.75024 5.85315 6.07461 5.70427 6.4206 5.66702C7.74039 4.56409 11.4834 5.96975 12.9114 6.57528C16.4242 7.89397 19.7832 9.59078 22.9288 11.6358C24.3568 12.6522 25.8713 14.5769 27.6887 15.096H29.8523C33.076 15.788 36.7326 15.2906 39.7832 16.1989C44.9131 17.9019 49.8059 20.2491 54.3441 23.1842C67.7557 31.7157 78.6573 43.6574 85.9325 57.786C87.1657 60.1 87.6633 62.2193 88.7884 64.6414C90.952 69.6154 93.5483 74.676 95.6686 79.5418C97.5345 84.3222 99.9448 88.872 102.852 93.1014C104.366 95.264 110.446 96.3453 113.194 97.4266C115.206 98.3349 118.343 99.1567 120.182 100.26C123.622 102.422 127.062 104.823 130.308 107.137C131.909 108.369 136.972 110.878 137.296 112.911" fill="#00758F"/>
</svg>
