<svg width="102" height="101" viewBox="0 0 102 101" fill="none" xmlns="http://www.w3.org/2000/svg">
<path d="M85.1941 46.25C84.9875 46.9699 84.7575 47.6833 84.5075 48.3833C84.2441 49.12 83.9608 49.8433 83.6508 50.5566L73.2808 50.3399C73.2808 50.5499 73.2808 50.7566 73.2741 50.9666L101.461 51.5566C101.497 49.8933 101.454 48.2333 101.324 46.5866L85.1908 46.25H85.1941Z" fill="black"/>
<path d="M63.4342 1.67969L63.1508 2.38302C64.7142 2.96969 66.2275 3.66635 67.6841 4.45635L57.6542 29.3196C58.2642 29.5063 58.8742 29.723 59.4775 29.9663C59.5075 29.9796 59.5375 29.9896 59.5642 30.003L70.1075 3.86302C70.0775 3.84969 70.0475 3.83969 70.0208 3.82635C67.8475 2.94969 65.6475 2.23636 63.4342 1.67969Z" fill="black"/>
<path d="M73.5174 8.40956C74.7741 9.45289 75.9608 10.5795 77.0674 11.7829L62.7574 31.6162C63.2574 31.9229 63.7441 32.2462 64.2108 32.5862L80.7074 9.72623C78.9374 8.44623 77.0674 7.26956 75.1041 6.21289L73.5174 8.41289V8.40956Z" fill="black"/>
<path d="M81.0907 17.0562C81.9441 18.4162 82.7074 19.8362 83.3774 21.3096L67.1174 35.1196C67.4574 35.4729 67.7841 35.8362 68.1007 36.2129L89.5874 17.9629C88.2574 16.3896 86.8274 14.8929 85.3007 13.4829L81.0941 17.0562H81.0907Z" fill="black"/>
<path d="M93.3641 23.0566L85.4074 27.0233C85.8074 28.5466 86.1108 30.1099 86.3108 31.7066L70.4508 39.6133C70.6441 39.9599 70.8308 40.3099 71.0041 40.6633L96.2274 28.0899C95.3708 26.3599 94.4141 24.6799 93.3608 23.0566H93.3641Z" fill="black"/>
<path d="M86.5874 37.0664C86.5541 38.6464 86.4174 40.2064 86.1841 41.7331L72.5508 44.7931C72.6274 45.0864 72.7008 45.3798 72.7641 45.6764L100.267 39.5031C99.8741 37.7498 99.3907 36.0198 98.8141 34.3198L86.5874 37.0631V37.0664Z" fill="black"/>
<path d="M100.717 59.09L81.9207 54.0366C81.2141 55.28 80.4374 56.4833 79.5941 57.63L72.6207 55.7566C72.5807 55.9133 72.5407 56.0666 72.4974 56.2233L99.7174 63.54C100.121 62.06 100.451 60.5766 100.714 59.0866L100.717 59.09Z" fill="black"/>
<path d="M77.4707 60.2598C76.6107 61.2298 75.6974 62.1531 74.7374 63.0231L70.6841 60.7864C70.6207 60.9064 70.5541 61.0264 70.4874 61.1464L95.1674 74.7631C95.8307 73.5598 96.4507 72.3231 97.024 71.0498L77.4674 60.2598H77.4707Z" fill="black"/>
<path d="M72.3841 64.9897C71.4574 65.6997 70.4941 66.3631 69.5007 66.9831L67.5841 65.2131C67.5141 65.2931 67.4407 65.3697 67.3674 65.4497L88.0741 84.5797C88.9207 83.6697 89.7341 82.7231 90.5141 81.7431L72.3841 64.9931V64.9897Z" fill="black"/>
<path d="M81.5474 90.4764L66.9874 68.4097C66.4108 68.7064 65.8274 68.9864 65.2341 69.253C65.2341 69.253 64.1641 69.713 63.9208 69.813L78.8241 92.3964C79.7541 91.7864 80.6607 91.1464 81.5507 90.4764H81.5474Z" fill="black"/>
<path d="M61.4474 70.6996C61.2007 70.7763 59.6374 71.2296 59.1741 71.343C59.1741 71.343 58.7374 71.4496 58.6174 71.4763L67.9674 97.773C68.8874 97.4463 69.7974 97.0963 70.6974 96.7163L61.4474 70.6963V70.6996Z" fill="black"/>
<path d="M55.8275 71.9766C55.0075 72.1533 54.1775 72.28 53.3375 72.3633L56.1508 100.413C56.9875 100.33 57.8208 100.226 58.6475 100.103L55.8275 71.98V71.9766Z" fill="black"/>
<path d="M50.1241 72.4362C49.4241 72.3995 48.7241 72.3329 48.0241 72.2295L44.0408 100.14C44.7374 100.24 45.4374 100.326 46.1341 100.4L50.1241 72.4395V72.4362Z" fill="black"/>
<path d="M17.2675 54.5766C17.4741 53.8566 17.7041 53.1433 17.9541 52.4433C18.2175 51.7066 18.5008 50.9833 18.8108 50.27L29.1808 50.4866C29.1808 50.2766 29.1808 50.07 29.1875 49.86L1.00081 49.27C0.964139 50.9333 1.00747 52.5933 1.13747 54.24L17.2708 54.5766H17.2675Z" fill="black"/>
<path d="M39.0307 99.1466L39.3141 98.4433C37.7507 97.8566 36.2374 97.1599 34.7807 96.3699L44.8107 71.5066C44.2007 71.3199 43.5907 71.1032 42.9874 70.8599C42.9574 70.8466 42.9274 70.8366 42.9007 70.8232L32.3574 96.9632C32.3874 96.9766 32.4174 96.9866 32.4441 96.9999C34.6174 97.8766 36.8174 98.5899 39.0307 99.1466Z" fill="black"/>
<path d="M28.9441 92.4164C27.6875 91.3731 26.5008 90.2464 25.3941 89.0431L39.7041 69.2097C39.2041 68.9031 38.7175 68.5797 38.2508 68.2397L21.7541 91.0997C23.5241 92.3797 25.3941 93.5564 27.3575 94.6131L28.9441 92.4131V92.4164Z" fill="black"/>
<path d="M21.3708 83.77C20.5175 82.41 19.7541 80.99 19.0841 79.5166L35.3441 65.7066C35.0041 65.3533 34.6775 64.99 34.3608 64.6133L12.8741 82.8633C14.2041 84.4366 15.6341 85.9333 17.1608 87.3433L21.3675 83.77H21.3708Z" fill="black"/>
<path d="M9.10079 77.7697L17.0575 73.8031C16.6575 72.2797 16.3541 70.7164 16.1541 69.1197L32.0141 61.2131C31.8208 60.8664 31.6341 60.5164 31.4608 60.1631L6.23413 72.7364C7.0908 74.4664 8.04746 76.1464 9.10079 77.7697Z" fill="black"/>
<path d="M15.8741 63.7599C15.9074 62.1799 16.0441 60.6199 16.2774 59.0932L29.9107 56.0332C29.8341 55.7399 29.7607 55.4465 29.6974 55.1499L2.19409 61.3199C2.58742 63.0732 3.07076 64.8032 3.64742 66.5032L15.8774 63.7599H15.8741Z" fill="black"/>
<path d="M1.74414 41.7365L20.5408 46.7898C21.2475 45.5465 22.0241 44.3432 22.8675 43.1965L29.8408 45.0698C29.8808 44.9132 29.9208 44.7598 29.9641 44.6032L2.74081 37.2832C2.33747 38.7632 2.00747 40.2465 1.74414 41.7365Z" fill="black"/>
<path d="M24.9908 40.5663C25.8508 39.5963 26.7642 38.673 27.7242 37.803L31.7775 40.0396C31.8408 39.9196 31.9075 39.7996 31.9742 39.6796L7.29416 26.0596C6.63083 27.263 6.01083 28.4997 5.4375 29.773L24.9942 40.563L24.9908 40.5663Z" fill="black"/>
<path d="M30.0808 35.8366C31.0075 35.1266 31.9708 34.4633 32.9641 33.8433L34.8808 35.6133C34.9508 35.5333 35.0241 35.4566 35.0975 35.3766L14.3908 16.2466C13.5441 17.1566 12.7308 18.1033 11.9508 19.0833L30.0808 35.8333V35.8366Z" fill="black"/>
<path d="M20.9175 10.3496L35.4775 32.4163C36.0541 32.1196 36.6375 31.8396 37.2308 31.573C37.2308 31.573 38.3008 31.113 38.5441 31.013L23.6441 8.42969C22.7141 9.03969 21.8075 9.67969 20.9175 10.3496Z" fill="black"/>
<path d="M41.0141 30.1265C41.2608 30.0499 42.8241 29.5965 43.2875 29.4832C43.2875 29.4832 43.7241 29.3765 43.8441 29.3499L34.4941 3.05322C33.5741 3.37989 32.6642 3.72989 31.7642 4.10989L41.0141 30.1299V30.1265Z" fill="black"/>
<path d="M46.6342 28.8497C47.4542 28.6731 48.2842 28.5464 49.1242 28.4631L46.3142 0.413086C45.4775 0.496419 44.6442 0.599753 43.8175 0.723086L46.6375 28.8464L46.6342 28.8497Z" fill="black"/>
<path d="M52.3408 28.3896C53.0408 28.4263 53.7408 28.493 54.4408 28.5963L58.4208 0.68627C57.7242 0.58627 57.0242 0.499603 56.3275 0.42627L52.3375 28.3863L52.3408 28.3896Z" fill="black"/>
</svg>
