<svg width="156" height="170" viewBox="0 0 156 170" fill="none" xmlns="http://www.w3.org/2000/svg">
<path d="M98.4933 79.3616L64.2991 90.4784L34.5506 103.551L26.2281 105.738C24.1085 107.745 21.886 109.778 19.4823 111.837C16.846 114.101 14.3907 116.16 12.5037 117.653C10.4103 119.3 7.30874 122.388 5.73228 124.343C3.38016 127.276 1.51932 130.39 0.718042 132.783C-0.703598 137.107 -0.00541653 141.481 2.73417 145.522C6.24918 150.668 13.2536 155.917 21.4206 159.494C25.5821 161.322 32.5862 163.663 37.8586 164.975C46.6202 167.188 63.5753 169.582 72.9055 169.942C74.7919 170.019 77.3251 170.019 77.4282 169.942C77.6352 169.813 79.0826 167.06 80.7629 163.638C86.5007 151.98 90.6359 141.044 92.8844 131.703C94.2283 126.042 95.2878 118.502 95.9854 109.573C96.1667 107.077 96.2439 98.7135 96.0889 95.8827C95.8561 91.2509 95.4425 87.4941 94.7969 83.8142C94.6935 83.2737 94.6673 82.7847 94.7192 82.759C94.8223 82.6819 95.1324 82.579 99.3454 81.3693L98.4929 79.3624V79.3618H98.4933V79.3616ZM90.6879 83.9166C90.998 83.9166 91.8248 91.8164 92.0315 96.809C92.0834 97.8639 92.0572 98.5587 92.0057 98.5587C91.7992 98.5587 87.6377 96.1143 84.6659 94.2616C82.0812 92.6403 77.1706 89.3978 76.3953 88.7803C76.1363 88.6003 76.1621 88.5746 78.2818 87.8539C81.874 86.6442 90.4036 83.9166 90.6879 83.9166ZM73.2677 89.6295C73.5004 89.6295 74.0945 89.9636 75.5161 90.8388C80.8402 94.1583 88.0774 98.1728 91.1788 99.5111C92.1349 99.9227 92.238 99.7681 90.0415 101.261C85.3375 104.452 79.4702 107.591 72.285 110.756C71.0188 111.322 69.9592 111.76 69.9335 111.76C69.882 111.76 70.0366 111.117 70.2431 110.345C71.9749 103.937 72.9572 97.452 73.0092 92.2539C73.0349 89.6805 73.0349 89.6805 73.2677 89.6037C73.2157 89.6295 73.2414 89.6295 73.2677 89.6295ZM69.6752 90.9931C69.8298 91.1473 69.7267 96.9118 69.5198 98.4813C69.0546 102.238 68.3309 105.738 67.1424 109.675C66.858 110.627 66.5991 111.425 66.548 111.476C66.4441 111.605 62.9032 108.157 61.7402 106.819C59.7241 104.503 58.1479 102.187 56.9847 99.9224C56.3902 98.7643 55.46 96.5001 55.5373 96.4227C55.9508 96.1397 69.5717 90.8904 69.6752 90.9931ZM52.7717 97.6064C52.7974 97.6064 52.8231 97.6064 52.8494 97.632C52.9009 97.6835 53.0821 98.0954 53.2372 98.5584C54.064 100.797 55.9246 104.091 57.5275 106.201C59.285 108.517 61.5855 110.987 63.4976 112.609C64.1182 113.123 64.6865 113.612 64.7638 113.689C64.9192 113.844 64.9708 113.818 60.7578 115.414C55.8735 117.266 50.5489 119.119 44.4491 121.075C42.992 121.542 41.5362 122.014 40.0818 122.49C39.8488 122.567 39.9265 122.439 40.5984 121.384C43.6223 116.674 48.2227 107.436 50.8075 100.9C51.2469 99.7679 51.6862 98.6358 51.7639 98.3784C51.8674 98.0179 51.9964 97.8894 52.3322 97.7092C52.5131 97.6581 52.6943 97.6064 52.7717 97.6064ZM47.603 99.7422C47.6803 99.794 46.3621 102.547 45.0698 105.069C42.5626 109.932 39.823 114.719 36.153 120.535C35.5327 121.538 34.9385 122.465 34.8608 122.568C34.7317 122.748 34.6797 122.696 34.2663 121.898C33.3875 120.174 32.6636 117.961 32.276 115.928C31.8882 113.921 31.9659 110.421 32.4054 108.26C32.7411 106.665 32.7155 106.69 33.4908 106.304C36.7991 104.632 47.4995 99.6394 47.603 99.7422ZM92.1869 101.544V102.624C92.1869 108.363 91.5666 116.237 90.6617 121.976C90.5066 122.979 90.3769 123.802 90.3516 123.829C90.3516 123.829 89.6021 123.623 88.7234 123.365C84.8466 122.156 80.6337 120.38 76.8342 118.296C74.3268 116.932 70.6828 114.693 70.7864 114.59C70.8117 114.565 71.8975 113.998 73.1637 113.329C78.2302 110.705 83.0888 107.874 87.3017 105.069C88.8784 104.014 91.2558 102.316 91.7733 101.853L92.1869 101.544ZM28.0889 109.16C28.1922 109.16 28.1664 109.366 28.0113 110.293C27.9079 110.962 27.7788 112.197 27.7274 113.046C27.5201 116.803 28.1409 119.582 30.0017 123.391C30.5186 124.446 30.9324 125.321 30.9062 125.346C30.7252 125.501 13.6155 130.493 8.23922 131.96C6.63689 132.397 5.24147 132.783 5.13754 132.809C4.95698 132.86 4.931 132.835 5.00847 132.397C5.60284 128.614 8.49773 123.674 12.5295 119.505C15.2176 116.726 17.363 115.105 21.033 113.02C23.6693 111.528 27.7271 109.289 28.0372 109.186C28.0374 109.16 28.0632 109.16 28.0889 109.16ZM68.4086 116.34C68.4344 116.314 69.0546 116.649 69.804 117.086C75.3352 120.277 83.0372 123.237 89.6016 124.755L90.1965 124.883L89.3692 125.346C85.9319 127.251 74.6372 131.934 63.0844 136.231C61.4041 136.849 59.7502 137.467 59.4396 137.595C59.1295 137.724 58.8451 137.801 58.8451 137.775C58.8451 137.749 59.3106 136.849 59.9046 135.742C63.1354 129.721 66.3922 122.387 68.0463 117.292C68.2536 116.803 68.3824 116.366 68.4086 116.34ZM64.2991 117.678C64.3253 117.704 64.1183 118.244 63.8597 118.862C61.6113 124.291 58.6644 130.21 54.8911 136.849C53.935 138.548 53.1336 139.912 53.1074 139.912C53.082 139.912 52.3064 139.448 51.376 138.882C45.8963 135.537 41.0375 131.42 37.8587 127.431L37.3933 126.865L39.7451 126.221C48.171 123.931 55.33 121.461 62.4379 118.425C63.4461 118.013 64.2734 117.678 64.2991 117.678ZM89.8349 126.556C89.8349 126.556 89.8607 126.582 89.8349 126.556C89.8606 127.148 88.5424 132.449 87.4568 136.283C86.5523 139.499 85.7765 142.021 84.3553 146.473C83.7351 148.429 83.1927 150.05 83.1665 150.05C83.1407 150.05 82.9857 150.024 82.8306 149.973C75.1545 148.583 68.2794 146.653 61.8179 144.08C60.0085 143.359 57.424 142.201 57.269 142.073C57.2175 142.021 58.7683 141.301 60.7325 140.451C72.4924 135.331 84.6916 129.515 88.8784 127.019C89.3693 126.71 89.7572 126.556 89.8349 126.556ZM30.8804 128.563C30.9322 128.615 27.6497 133.324 23.0489 139.731C21.4466 141.97 19.5858 144.595 18.888 145.572C18.1901 146.55 17.1305 148.094 16.536 149.021L15.45 150.693L14.2869 149.716C12.917 148.583 10.5395 146.164 9.47981 144.826C7.25689 142.073 5.75814 139.165 5.16364 136.515C4.87927 135.28 4.87927 134.662 5.13742 134.585C5.52501 134.482 12.4259 132.861 18.8878 131.368C22.4804 130.545 26.6413 129.567 28.1404 129.207C29.6396 128.846 30.8547 128.563 30.8804 128.563ZM34.1886 129.824L35.0153 130.75C38.7376 134.894 42.5369 137.956 47.1374 140.632C47.9647 141.095 48.5848 141.507 48.5328 141.533C48.3524 141.662 32.5601 147.245 25.2459 149.767C21.1366 151.208 17.7505 152.366 17.725 152.366C17.6993 152.366 17.4665 152.212 17.2077 152.031L16.7427 151.697L17.4922 150.616C19.9215 147.116 22.9718 143.282 29.6141 135.305L34.1886 129.824ZM54.8139 144.517C54.8393 144.492 55.9765 144.903 57.3721 145.419C60.7325 146.679 63.3941 147.477 66.9612 148.378C71.3551 149.484 77.713 150.565 81.4609 150.874C82.0296 150.925 82.3397 150.977 82.2362 151.054C82.055 151.157 78.2561 152.418 75.4646 153.293C71.0188 154.682 57.4499 158.671 46.388 161.836C44.3461 162.428 42.5885 162.917 42.4851 162.942C42.227 162.994 41.3737 162.762 41.3737 162.659C41.3737 162.608 41.994 161.81 42.7437 160.935C46.4652 156.509 50.1615 151.569 53.2372 146.885C54.0898 145.598 54.8139 144.543 54.8139 144.517ZM50.2646 144.646C50.2903 144.672 48.4555 147.605 45.251 152.649C43.8808 154.785 42.3558 157.204 41.8129 158.053C41.296 158.876 40.5207 160.163 40.0815 160.884L39.3319 162.196L38.9443 162.093C38.0136 161.836 31.4747 159.545 29.7429 158.851C27.5976 158.001 25.3749 156.972 23.7206 156.097C21.6533 154.991 19.0688 153.344 19.2754 153.292C19.327 153.267 22.868 152.314 27.1323 151.157C38.453 148.094 44.7333 146.319 48.8432 145.032C49.5929 144.801 50.2389 144.62 50.2646 144.646ZM82.4428 152.16H82.4685C82.572 152.418 78.3852 163.997 76.8597 167.651C76.5242 168.475 76.3953 168.681 76.2141 168.655C75.7746 168.629 69.7011 167.78 66.0047 167.24C59.5694 166.262 48.7656 164.383 46.052 163.766L45.4318 163.637L49.2823 162.762C57.5532 160.909 61.5334 159.906 65.5652 158.67C70.657 157.126 75.6973 155.196 80.7886 152.829C81.5898 152.469 82.2619 152.186 82.4428 152.16Z" fill="url(#paint0_linear_2422_587)"/>
<path d="M63.2397 0.001318C62.6711 -0.0754576 53.4955 3.2183 47.577 5.61116C39.5904 8.85389 33.3878 11.942 29.5624 14.6176C28.1411 15.6217 26.3574 17.397 26.0735 18.0917C25.9702 18.349 25.9182 18.6578 25.9182 18.9666L29.3817 22.2347L37.6264 24.8594L57.2435 28.3592L79.6775 32.1935L79.9103 30.2635C79.8329 30.2635 79.781 30.2379 79.7041 30.2379L76.7569 29.7745L76.1628 28.7196C73.1129 23.367 69.753 16.7278 67.7888 12.2503C66.264 8.77629 64.8165 4.76236 64.0151 1.88013C63.5757 0.130305 63.5242 0.0274238 63.2403 0.0017924V0.0011985H63.2397V0.001318ZM62.8257 1.3141H62.8523C62.8776 1.33949 62.9811 2.0605 63.0847 2.90918C63.5236 6.5123 64.3255 9.98571 65.5917 13.7429C66.5478 16.5736 66.5478 16.4193 65.4367 16.0846C62.8004 15.3643 50.9889 13.3313 42.4339 12.1477C41.064 11.9674 39.9009 11.7874 39.9009 11.7618C39.7976 11.6589 46.0779 8.39051 48.8435 7.10419C52.3843 5.48265 62.1023 1.44261 62.8257 1.3141ZM37.9104 12.8423L38.9188 13.1765C44.3977 15.0295 58.1733 17.6544 65.7724 18.2719C66.6251 18.3492 67.3491 18.4265 67.3745 18.4265C67.4002 18.4522 66.677 18.8382 65.7463 19.2754C62.0766 21.1025 58.0444 23.3414 55.253 25.0655C54.4262 25.58 53.6763 25.992 53.5732 25.992C53.4698 25.992 52.9272 25.889 52.3586 25.8117L51.3248 25.6571L48.7405 23.1351C44.1916 18.7351 40.6247 15.3384 39.2548 14.0515L37.9104 12.8423ZM36.8769 13.6399L40.5211 18.169C42.511 20.6651 44.5271 23.1096 44.9669 23.6498C45.4058 24.1905 45.7679 24.6281 45.7422 24.6538C45.6387 24.7309 40.4699 23.7271 37.7298 23.1098C34.9126 22.4663 33.7496 22.1576 32.018 21.6174L30.5963 21.154V20.7935C30.6221 19.0693 32.8193 16.4962 36.5409 13.8717L36.8769 13.6399ZM67.8402 19.8158C67.9437 19.8158 68.0726 20.0474 68.3827 20.7421C69.2614 22.672 72.0016 27.8703 72.673 28.8737C72.8804 29.2086 73.2416 29.2342 69.5978 28.6423C60.8362 27.2267 58.0187 26.764 58.0187 26.7125C58.0187 26.6868 58.2772 26.5066 58.6132 26.3263C61.3272 24.8341 64.0666 22.9297 66.4963 20.8968C67.0908 20.4077 67.6336 19.9446 67.7367 19.8672C67.7624 19.8158 67.8144 19.7902 67.8402 19.8158Z" fill="url(#paint1_linear_2422_587)"/>
<path d="M26.2536 17.7314C26.2536 17.7314 25.6854 18.6325 26.228 19.9706C26.5644 20.7938 27.5463 21.7972 28.6575 22.8268C28.6575 22.8268 40.1588 33.9947 41.5546 35.5904C47.9124 42.8983 50.6781 50.1036 50.9366 60.0366C51.0917 66.4184 49.8766 72.0281 46.8529 78.5386C41.4769 90.2214 30.1304 103.114 12.6328 117.421L15.192 116.572C16.846 115.337 19.0947 114.025 24.3671 111.142C36.5403 104.503 50.2387 98.4043 67.0387 92.1255C91.2298 83.0673 131.007 72.4651 153.648 69.0173L156 68.6569L155.638 68.0907C153.571 64.8997 152.149 62.9185 150.443 60.8084C145.481 54.6839 139.459 49.7177 132.092 45.6003C121.961 39.9651 108.857 35.5648 92.2639 32.2966C89.1367 31.6788 82.2616 30.4952 76.679 29.646C64.8414 27.8194 57.191 26.5583 48.7654 25.1172C45.7417 24.6023 41.2183 23.8305 38.2202 23.1874C36.6695 22.8525 33.6975 22.1579 31.3713 21.3602C29.5105 20.6393 26.8223 19.9188 26.2536 17.7314ZM32.9223 24.1649C32.9478 24.1395 33.3612 24.2935 33.9044 24.4737C34.8865 24.8079 36.1528 25.194 37.6523 25.606C38.7866 25.9166 39.9239 26.2168 41.0638 26.5065C42.6145 26.8923 43.9066 27.2527 43.9324 27.2527C44.1136 27.4329 46.7242 35.7441 47.6029 38.9351C47.9384 40.1448 48.1974 41.1739 48.1715 41.1739C48.145 41.2 47.8611 40.7622 47.5252 40.1705C44.5011 34.8694 39.7197 29.4913 34.1885 25.168C33.4652 24.6538 32.9223 24.1906 32.9223 24.1649ZM45.6384 27.6646C45.7677 27.6646 46.3363 27.7418 47.0338 27.8961C51.4277 28.8739 59.3108 30.3664 64.3506 31.2157C65.2036 31.3442 65.8758 31.499 65.8758 31.5501C65.8758 31.6019 65.5653 31.7816 65.1775 31.9877C64.3249 32.425 60.8872 34.4577 59.7503 35.2299C56.8811 37.1341 54.2968 39.1927 52.4358 41.0454C51.6863 41.7918 51.0399 42.4093 51.0399 42.4093C51.0399 42.4093 50.8853 41.972 50.7555 41.4313C49.8256 37.8544 47.8868 32.5533 46.1293 28.8223C45.8449 28.2306 45.6122 27.6901 45.6122 27.6388C45.6122 27.6902 45.6122 27.6646 45.6384 27.6646ZM68.0207 31.9105C68.1758 31.9618 68.4343 32.8368 68.9511 34.7666C69.9076 38.4981 70.347 42.6668 70.1919 46.5525C70.14 47.6333 70.0885 48.6367 70.0365 48.7657L69.9592 49.0227L68.6152 48.5854C65.8497 47.7105 61.3527 46.3978 57.5018 45.3173C55.3045 44.7254 53.5216 44.185 53.5216 44.1336C53.5216 43.979 56.7266 40.7882 58.0963 39.5789C60.7062 37.2884 67.788 31.8331 68.0207 31.9105ZM69.8041 32.1675C69.8818 32.0907 80.5044 33.9173 85.3376 34.8439C88.9305 35.5385 94.1511 36.6194 94.4611 36.7483C94.6162 36.7996 94.0733 37.1083 92.3415 37.8803C85.5184 40.9427 80.4523 43.6957 75.413 47.0414C74.0948 47.9163 72.9833 48.6367 72.9575 48.6367C72.9318 48.6367 72.9059 47.8906 72.9059 46.9899C72.9059 42.1008 71.9237 37.16 70.1141 32.9913C69.9333 32.5795 69.7783 32.1936 69.8041 32.1675ZM97.2782 37.5717C97.3559 37.6489 97.0197 39.7334 96.7096 40.9684C95.7792 44.8026 93.2722 50.49 90.1969 55.8421C89.6537 56.7942 89.1628 57.5663 89.1107 57.5919C89.0595 57.6175 88.3616 57.2314 87.5602 56.7683C84.5622 55.0184 81.1507 53.3716 77.4286 51.8274C76.3952 51.3902 75.4903 51.0297 75.4644 50.9786C75.2832 50.824 83.6058 45.3429 87.9996 42.7182C91.4889 40.6082 97.1747 37.4686 97.2782 37.5717ZM99.2424 37.8804C99.4751 37.8804 104.179 39.1672 106.634 39.8877C112.708 41.6891 119.686 44.2365 124.235 46.2951L126.122 47.1446L124.804 47.4531C113.691 50.0005 104.179 52.9345 95.0037 56.6399C94.2541 56.9486 93.582 57.206 93.5309 57.206C93.4789 57.206 93.7374 56.6142 94.0734 55.8935C96.839 50.0522 98.6223 43.9535 99.0613 38.7552C99.0876 38.2661 99.1646 37.8804 99.2424 37.8804ZM52.41 48.5854C52.4874 48.508 56.0801 49.3574 58.0185 49.8974C60.9649 50.7211 67.2193 52.8052 67.2193 52.9598C67.2193 52.9855 66.5218 53.5774 65.695 54.2981C62.3092 57.103 59.0523 60.0619 55.1494 63.819C53.9862 64.9259 53.0044 65.8265 52.9529 65.8265C52.9009 65.8265 52.8755 65.6717 52.9009 65.466C53.4953 61.1427 53.3665 55.5846 52.5393 49.9491C52.4615 49.2283 52.3841 48.611 52.41 48.5854ZM127.906 48.6628C127.957 48.7139 126.251 51.3902 125.166 52.9082C123.615 55.1212 121.34 58.0553 116.197 64.4884C113.484 67.8848 110.433 71.7193 109.426 73.0059C108.392 74.2924 107.539 75.373 107.513 75.373C107.487 75.373 107.152 74.9101 106.79 74.3441C103.895 70.0208 100.431 66.238 96.3216 62.8414C95.5463 62.1978 94.6938 61.5031 94.4094 61.2972C94.125 61.0914 93.8923 60.8855 93.8923 60.8599C93.8923 60.7829 98.2857 58.904 101.62 57.5662C107.462 55.1986 115.421 52.3681 121.392 50.5409C124.52 49.5632 127.854 48.611 127.906 48.6628ZM129.896 49.1771C129.999 49.1516 130.619 49.4603 131.369 49.8974C137.65 53.4743 143.801 58.0807 148.66 62.8156C150.03 64.1539 153.415 67.6535 153.363 67.6792C153.363 67.6792 152.175 67.7821 150.779 67.8848C139.898 68.7086 125.967 70.9985 112.579 74.215C111.675 74.4206 110.874 74.6009 110.822 74.6009C110.77 74.6009 111.778 73.5974 113.045 72.3881C120.902 64.8484 124.494 60.0879 128.733 51.5958C129.327 50.3352 129.844 49.2544 129.896 49.1771C129.87 49.1771 129.87 49.1771 129.896 49.1771ZM72.3369 55.0445C72.699 55.1213 76.0589 56.6916 78.5917 57.9522C80.9179 59.1097 84.4073 60.9629 84.5881 61.1171C84.6138 61.1427 83.373 61.7861 81.8487 62.5325C76.9893 64.9513 72.8283 67.2413 68.4859 69.8662C67.2454 70.6126 66.2116 71.2304 66.1859 71.2304C66.0824 71.2304 66.1082 71.127 66.8061 69.8662C69.1324 65.6463 70.993 60.6026 72.053 55.6875C72.156 55.3016 72.2596 55.0445 72.3369 55.0445ZM68.9768 55.6618C69.0546 55.7392 68.1758 58.9041 67.6333 60.6283C66.5732 63.8964 64.79 67.9878 63.0586 71.0758C62.6445 71.796 62.0244 72.8512 61.6884 73.4429L61.0425 74.4722L59.5951 73.083C57.9153 71.4617 56.5451 70.4582 54.788 69.5573C54.0897 69.1974 53.5471 68.8882 53.5471 68.8371C53.5471 68.6312 57.9668 64.6427 61.3526 61.7606C63.7819 59.6761 68.8995 55.5847 68.9768 55.6618ZM89.5248 64.0767L90.7914 64.8998C93.6855 66.7786 97.097 69.2745 99.708 71.4617C101.181 72.6709 104.024 75.2189 104.593 75.8364L104.902 76.1713L102.809 76.7629C90.9719 80.0307 81.8225 82.9386 71.148 86.8502C69.9592 87.2875 68.9511 87.6477 68.8734 87.6477C68.7188 87.6477 68.5891 87.7763 71.2516 85.3315C78.0751 79.079 84.1227 72.1821 88.62 65.4659L89.5248 64.0767ZM84.1229 65.4147C84.1744 65.466 80.6336 70.4323 78.514 73.2373C75.9812 76.5827 71.4839 82.1923 68.3825 85.8461C67.0905 87.3646 65.9794 88.6254 65.9274 88.6513C65.8497 88.6769 65.8239 88.291 65.8239 87.6991C65.8239 84.5851 65.0229 81.2656 63.627 78.4352C63.0325 77.2516 62.929 76.9684 63.0587 76.8399C63.5496 76.4023 71.0707 72.1306 75.8262 69.5833C79.0311 67.8849 84.0447 65.3632 84.1229 65.4147ZM51.4534 73.3919C51.5311 73.3919 52.1256 73.7004 52.7977 74.0609C54.4518 74.9615 55.925 75.965 57.2431 77.0461C57.2946 77.0973 56.6228 77.6379 55.7441 78.2809C53.2886 80.0307 49.567 82.8358 47.3962 84.56C45.1212 86.3613 45.0442 86.4127 45.3024 86.0268C47.0084 83.4277 47.8609 81.9609 48.7659 80.0825C49.567 78.4101 50.368 76.4285 50.9366 74.7043C51.1433 73.9581 51.4019 73.3919 51.4534 73.3919ZM60.1638 80.1852C60.2927 80.1598 60.4482 80.3911 61.1457 81.4206C62.6189 83.6075 63.7562 86.5414 64.0409 88.9088L64.092 89.4237L60.5517 90.7876C54.219 93.2319 48.3782 95.651 44.4233 97.452C43.3122 97.9669 41.3737 98.8931 40.1075 99.5111C38.8409 100.154 37.8071 100.643 37.8071 100.617C37.8071 100.592 38.6081 99.9998 39.5902 99.2791C47.3187 93.6953 54.0125 87.5706 59.0264 81.4464C59.5693 80.8028 60.0606 80.2109 60.1119 80.1853L60.1638 80.1852ZM56.1578 81.1632C56.2612 81.2661 53.3149 84.5855 51.2988 86.6183C46.3106 91.688 41.3739 95.651 35.2483 99.5111C34.473 99.9998 33.7753 100.437 33.6976 100.489C33.5165 100.592 33.7491 100.334 36.4372 97.4264C38.1432 95.5993 39.4353 94.0554 40.9085 92.1514C41.8906 90.8907 42.0716 90.7105 43.4934 89.7064C47.2928 86.9787 56.0543 81.0601 56.1578 81.1632Z" fill="url(#paint2_radial_2422_587)"/>
<defs>
<linearGradient id="paint0_linear_2422_587" x1="25.7256" y1="153.184" x2="38.0621" y2="145.862" gradientUnits="userSpaceOnUse">
<stop stop-color="#909CA9"/>
<stop offset="1" stop-color="#EDEDEE"/>
</linearGradient>
<linearGradient id="paint1_linear_2422_587" x1="26.0089" y1="16.0471" x2="35.9578" y2="16.0471" gradientUnits="userSpaceOnUse">
<stop stop-color="#939FAB"/>
<stop offset="1" stop-color="#DCDEE1"/>
</linearGradient>
<radialGradient id="paint2_radial_2422_587" cx="0" cy="0" r="1" gradientUnits="userSpaceOnUse" gradientTransform="translate(76.2107 61.4762) rotate(-171.494) scale(12.8256 25.5503)">
<stop stop-color="#EE352C"/>
<stop offset="1" stop-color="#A91D22"/>
</radialGradient>
</defs>
</svg>
