<svg width="290" height="70" viewBox="0 0 290 70" fill="none" xmlns="http://www.w3.org/2000/svg">
<path fill-rule="evenodd" clip-rule="evenodd" d="M118.938 10.8332C106.949 10.8332 98.6044 19.8339 98.6044 32.8229C98.6044 45.8119 106.949 54.8126 118.938 54.8126C123.586 54.8126 127.811 53.5191 131.191 50.932V42.7937C127.547 46.2431 123.533 47.9678 119.149 47.9678C111.016 47.9678 105.787 41.9853 105.787 32.8229C105.787 23.4988 111.016 17.678 119.149 17.678C123.533 17.678 127.599 19.4027 131.191 22.8521V14.7137C127.811 12.1267 123.586 10.8332 118.938 10.8332ZM143.761 40.7995H164.728H164.781V38.0508C164.781 28.7267 159.446 22.5825 151.524 22.5825C143.021 22.5825 137.212 29.2118 137.212 38.8592C137.212 48.6683 143.285 54.8125 153.056 54.8125C156.859 54.8125 160.397 53.8424 163.143 52.0638V45.7579C160.45 47.6443 157.017 48.6683 153.267 48.6683C147.616 48.6683 144.394 46.0813 143.761 40.7995ZM158.443 35.5176H143.919C144.711 31.0442 147.458 28.5111 151.577 28.565C155.591 28.565 157.968 30.9364 158.443 35.5176ZM197.367 33.8469V54.1658H190.713V35.1404C190.713 31.2598 188.547 28.9423 185.114 28.9423C182.262 28.9423 179.674 30.6131 178.407 33.3079V54.1658H171.752V23.2293H177.931V27.7027C179.938 24.415 183.107 22.5825 187.016 22.5825C193.3 22.5825 197.367 27.0559 197.367 33.8469ZM203.811 45.1651V52.0638C206.768 53.8424 210.412 54.8125 214.585 54.7047C222.454 54.7047 227.313 51.0398 227.313 44.9495C227.313 40.4222 224.619 37.5118 219.496 36.2722L213.792 34.9248C211.68 34.4936 210.624 33.4696 210.624 31.8527C210.624 29.6429 212.578 28.4572 216.328 28.4572C220.025 28.4572 223.193 29.589 225.834 31.7988V24.9001C223.457 23.391 220.183 22.5825 216.433 22.5825C208.828 22.5825 204.18 26.2475 204.18 32.1222C204.18 36.6495 206.768 39.6677 211.627 40.7995L217.331 42.093C219.708 42.6319 220.764 43.7099 220.764 45.4885C220.764 47.7521 218.863 48.83 214.849 48.83C210.571 48.83 206.927 47.6443 203.811 45.1651ZM251.872 23.2294H258.473V54.112H252.453V49.4769C250.446 52.8723 247.33 54.7587 243.368 54.7587C237.242 54.7587 233.07 50.2314 233.07 43.5483V23.2294H239.724V42.2009C239.724 46.0275 241.943 48.399 245.323 48.399C248.175 48.399 250.657 46.7282 251.872 43.9256V23.2294ZM265.603 45.1651V52.0638C268.561 53.8424 272.152 54.8125 276.377 54.7047C284.247 54.7047 289.106 51.0398 289.106 44.9495C289.106 40.4222 286.412 37.5118 281.289 36.2722L275.585 34.9248C273.473 34.4936 272.416 33.4696 272.416 31.8527C272.416 29.6429 274.37 28.4572 278.12 28.4572C281.817 28.4572 284.986 29.589 287.627 31.7988V24.9001C285.25 23.391 281.976 22.5825 278.226 22.5825C270.621 22.5825 265.973 26.2475 265.973 32.1222C265.973 36.6495 268.561 39.6677 273.42 40.7995L279.124 42.093C281.5 42.6319 282.557 43.7099 282.557 45.4885C282.557 47.7521 280.655 48.83 276.641 48.83C272.363 48.83 268.719 47.6443 265.603 45.1651Z" fill="#090051"/>
<path d="M78.8518 34.8709L61.2646 3.77274C59.9443 1.4552 57.5148 0 54.8741 0H23.9777C21.337 0 18.9075 1.4552 17.5872 3.77274L15.369 7.70717H54.8213L50.4377 15.4143H10.9854L6.60179 23.1754H46.0541L41.6705 30.8826H2.2182L0 34.8709L2.16539 38.6437H41.6177L45.9485 46.3508H6.49616L10.8798 54.058H50.3321L54.7156 61.7652H15.2633L17.5872 65.8613C18.9075 68.1788 21.337 69.634 23.9777 69.634H54.8741C57.5148 69.634 59.9443 68.1788 61.2646 65.8613L78.8518 34.8709Z" fill="#EF54AC"/>
</svg>
