<svg width="58" height="50" viewBox="0 0 58 50" fill="none" xmlns="http://www.w3.org/2000/svg">
<path d="M57.57 25.0193L44.7295 2.70688C43.7655 1.04408 41.9918 0 40.0638 0H17.5062C15.5782 0 13.8045 1.04408 12.8405 2.70688L11.2209 5.52978H40.0252L36.8247 11.0596H8.02047L4.81999 16.628H33.6243L30.4238 22.1578H1.61952L0 25.0193L1.58096 27.7262H30.3852L33.5471 33.256H4.74287L7.94335 38.7858H36.7476L39.9481 44.3155H11.1438L12.8405 47.2544C13.8045 48.9172 15.5782 49.9613 17.5062 49.9613H40.0638C41.9918 49.9613 43.7655 48.9172 44.7295 47.2544L57.57 25.0193Z" fill="#EF54AC"/>
</svg>
