<svg width="103" height="156" viewBox="0 0 103 156" fill="none" xmlns="http://www.w3.org/2000/svg">
<path d="M97.3646 67.6247C95.173 65.7463 5.94593 3.44385 1.87592 0.93923L0.623535 0V15.3408C0.623535 20.35 3.12812 21.9154 6.25889 24.42L6.88509 24.7331C11.2682 27.8639 74.823 72.0078 83.2761 77.9563C74.823 83.9048 10.3289 128.675 6.25889 131.179C1.24965 134.31 0.936727 136.502 0.936727 140.885V155.6C0.936727 155.6 95.7991 89.5402 97.6776 87.9748C102.061 84.844 103 80.774 103 78.2694V76.3909C103 73.2601 101.121 70.1294 97.3646 67.6247Z" fill="#356AE6"/>
<path d="M41.6395 84.8449C44.1441 84.8449 46.6486 83.9057 49.1532 82.0272C52.284 79.8357 55.1018 77.9572 55.1018 77.9572L56.041 77.3311L55.1018 76.7049C54.7887 76.3918 13.1494 47.5887 8.76632 44.771C6.88786 43.2056 4.38316 42.8925 2.81777 43.8318C1.25239 44.771 0 46.3364 0 48.841V58.5464L0.313192 58.8595C0.62627 59.1726 29.1163 78.8965 34.7517 82.6534C37.2563 84.2188 39.4479 84.8449 41.6395 84.8449Z" fill="#356AE6"/>
</svg>
