<svg width="125" height="125" viewBox="0 0 125 125" fill="none" xmlns="http://www.w3.org/2000/svg">
<path fill-rule="evenodd" clip-rule="evenodd" d="M125 62.5C125 97.0178 97.0178 125 62.5 125C27.9822 125 0 97.0178 0 62.5C0 27.9822 27.9822 0 62.5 0C97.0178 0 125 27.9822 125 62.5ZM62.7681 19.8497C39.0649 19.8497 19.8497 39.0649 19.8497 62.7681C19.8497 86.4713 39.0649 105.687 62.7681 105.687C86.4713 105.687 105.687 86.4713 105.687 62.7681C105.687 39.0649 86.4713 19.8497 62.7681 19.8497ZM10.7295 62.7681C10.7295 34.028 34.028 10.7295 62.7681 10.7295C91.5083 10.7295 114.807 34.028 114.807 62.7681C114.807 91.5083 91.5083 114.807 62.7681 114.807C34.028 114.807 10.7295 91.5083 10.7295 62.7681ZM87.1551 54.3948C88.4666 57.3525 88.927 60.5802 88.8402 63.9467C88.8402 78.1092 81.1528 95.5347 65.5613 95.5347C61.5657 95.4303 57.8829 94.5429 54.7558 92.3246C52.2108 90.5237 50.3954 87.8878 49.3357 84.9301C49.3239 84.8971 49.3121 84.8634 49.3 84.8288L49.3 84.8287C49.2674 84.7355 49.2323 84.6353 49.188 84.5212C49.1615 84.5495 49.1358 84.5767 49.1107 84.6031C49.0774 84.6379 49.0453 84.6713 49.0142 84.7036C48.9531 84.7672 48.8956 84.8269 48.8406 84.8865C46.0089 87.9487 42.7603 90.289 39.1816 92.0461C36.9927 93.125 34.3435 92.0637 33.4922 89.7669C32.7539 87.7834 33.6486 85.5739 35.5335 84.6256C35.8896 84.4515 36.211 84.2777 36.4455 84.1297C42.4824 80.4062 46.7472 75.0387 49.0317 68.6186C53.2966 56.6304 57.4312 39.6143 59.2205 25.7821C59.4898 23.7029 61.3053 22.1805 63.3985 22.2675C65.7784 22.3719 67.4377 24.3814 67.1508 26.7651C65.7525 37.1175 62.9642 47.5831 62.9642 47.5831C62.9592 47.5932 62.9599 47.6032 62.9615 47.6232V47.6233C62.9627 47.638 62.9642 47.6581 62.9642 47.6875C63.0236 47.6578 63.0809 47.6301 63.1369 47.603L63.137 47.6029C63.2449 47.5508 63.3478 47.501 63.4506 47.4438C66.5167 45.7734 69.9652 44.9993 73.3008 45.1037C80.0411 45.3038 84.5666 48.5747 87.1551 54.3948ZM80.4676 67.3658C79.5383 73.8209 77.167 79.119 72.5894 83.5558C71.0867 84.9997 69.4015 86.122 67.4472 86.7135C64.242 87.6792 61.5581 87.0615 59.3778 84.9476C57.5799 83.199 56.6416 80.9458 56.355 78.3969C55.5646 71.2111 57.6146 64.556 62.6871 58.5533C63.9553 57.0482 65.4495 55.7956 67.1691 54.8561C71.3647 52.5767 76.2636 53.6032 78.5655 57.2135C79.7988 59.1536 80.3548 61.3807 80.4764 63.7643C80.5314 64.8457 80.4993 65.9434 80.4749 66.7768V66.777C80.4685 66.9962 80.4626 67.1971 80.459 67.3746L80.4676 67.3658Z" fill="#821DD7"/>
</svg>
