<svg width="163" height="163" viewBox="0 0 163 163" fill="none" xmlns="http://www.w3.org/2000/svg">
<path fill-rule="evenodd" clip-rule="evenodd" d="M0 87.5C0 126.4 30.5 163 75.4 163C118.3 163 149.2 128.9 150.6 90.5C150.6 88.8 149.3 87.5 147.7 87.5H135.6C134 87.5 132.8 88.8 132.7 90.3C131.3 119.1 108.1 145.2 75.4 145.2C41.8 145.2 17.8 118 17.8 87.6C17.8 56.5 42.3 31.6 72.7 30.2C74.3 30.1 75.5 28.8 75.5 27.3V15.2C75.5 13.6 74.1 12.2 72.5 12.3C31.1 13.9 0 48 0 87.5ZM40 87.4999C40 107.1 55.5 123 75.5 123C94.1 123 109.1 108.6 110.7 90.6999C110.8 88.9999 109.5 87.5999 107.8 87.5999H95.7C94.3 87.5999 93 88.6999 92.8 90.0999C91.6 98.8999 84 105.3 75.5 105.3C65.3 105.3 57.8 97.1999 57.8 87.5999C57.8 78.9999 64.2 71.4999 73 70.2999C74.5 70.0999 75.5 68.7999 75.5 67.3999V55.2999C75.5 53.5999 74.1 52.2999 72.4 52.3999C54.1 53.8999 40 69.1999 40 87.4999Z" fill="#1856ED"/>
<path fill-rule="evenodd" clip-rule="evenodd" d="M90.3 17.8C120.4 19.2 143.8 43.4 145.2 72.7C145.3 74.3 146.6 75.5 148 75.5H160.1C161.7 75.5 163.1 74.1 163 72.5C161.5 32.8 129.6 1.5 90.5 0C88.8 0 87.5 1.3 87.5 2.9V14.9C87.5 16.5 88.8 17.7 90.3 17.8ZM87.7 54.8001C87.7 56.3001 89 57.8001 90.8 58.1001C98.9 59.5001 104.3 66.3001 105.2 73.4001C105.4 74.6001 106.3 75.4001 107.5 75.4001H120.2C121.9 75.4001 123.2 74.0001 123.1 72.3001C121.6 55.5001 108.2 41.6001 90.8 40.1001C89.1 40.0001 87.7 41.3001 87.7 43.0001V54.8001Z" fill="#FF9E1A"/>
</svg>
