<svg width="125" height="111" viewBox="0 0 125 111" fill="none" xmlns="http://www.w3.org/2000/svg">
<path d="M28.2396 106.538L1.09324 59.3755C0.377125 58.1385 0 56.7342 0 55.3046C0 53.875 0.377125 52.4707 1.09324 51.2337L28.2396 4.07088C28.9522 2.83542 29.9765 1.80906 31.2101 1.09461C32.4436 0.380155 33.8431 0.00268307 35.2682 0L89.709 0C91.1305 0.00552339 92.5257 0.384402 93.7551 1.09877C94.9845 1.81314 96.0051 2.83798 96.7149 4.07088L123.907 51.2337C124.623 52.4707 125 53.875 125 55.3046C125 56.7342 124.623 58.1385 123.907 59.3755L96.7149 106.538C96.0013 107.775 94.9752 108.803 93.7394 109.517C92.5037 110.232 91.1019 110.609 89.6748 110.609H35.2682C33.8438 110.603 32.4457 110.224 31.2127 109.51C29.9797 108.796 28.9548 107.771 28.2396 106.538Z" fill="#4386FA"/>
<path opacity="0.1" d="M79.4678 40.1157C79.4678 40.1157 87.0319 58.2807 76.7224 68.6233C66.413 78.9658 47.6395 72.3292 47.6395 72.3292C47.6395 72.3292 75.5491 100.575 85.8244 110.609H89.7089C91.1432 110.615 92.5532 110.24 93.7958 109.523C95.0383 108.806 96.0691 107.772 96.7832 106.527L114.793 75.3168L79.4678 40.1157Z" fill="black"/>
<path d="M88.3989 77.2667L80.0375 68.9083C79.9506 68.8102 79.8463 68.729 79.7299 68.6689C83.2613 64.0903 84.9157 58.3361 84.356 52.5789C83.7962 46.8218 81.0644 41.4949 76.7172 37.6839C72.3701 33.8729 66.7348 31.8646 60.9597 32.0683C55.1847 32.272 49.7046 34.6723 45.6361 38.7801C41.5677 42.8879 39.2172 48.394 39.0636 54.1763C38.91 59.9586 40.9648 65.582 44.8094 69.9004C48.654 74.2188 53.9989 76.9073 59.755 77.4179C65.5111 77.9285 71.245 76.2229 75.7884 72.6485C75.8405 72.7605 75.914 72.8613 76.0048 72.945L84.3663 81.3148C84.487 81.4368 84.6308 81.5337 84.7891 81.5998C84.9475 81.666 85.1174 81.7 85.289 81.7C85.4606 81.7 85.6305 81.666 85.7889 81.5998C85.9473 81.5337 86.091 81.4368 86.2117 81.3148L88.3989 79.1254C88.5212 79.0036 88.6182 78.8588 88.6844 78.6993C88.7507 78.5398 88.7847 78.3688 88.7847 78.1961C88.7847 78.0234 88.7507 77.8524 88.6844 77.6929C88.6182 77.5334 88.5212 77.3886 88.3989 77.2667ZM61.7766 71.8389C58.397 71.8389 55.0933 70.8357 52.2833 68.9563C49.4733 67.0768 47.2832 64.4054 45.9898 61.28C44.6965 58.1545 44.3581 54.7154 45.0175 51.3974C45.6768 48.0795 47.3042 45.0318 49.6939 42.6397C52.0837 40.2475 55.1284 38.6185 58.443 37.9585C61.7577 37.2985 65.1934 37.6373 68.3157 38.9319C71.4381 40.2265 74.1068 42.4188 75.9844 45.2316C77.862 48.0444 78.8641 51.3514 78.8641 54.7344C78.8641 59.2708 77.0638 63.6214 73.8593 66.8291C70.6548 70.0368 66.3085 71.8389 61.7766 71.8389Z" fill="white"/>
<path d="M50.8406 53.8337V60.9036C51.9291 62.8249 53.4998 64.4285 55.3972 65.556V53.7881L50.8406 53.8337Z" fill="white"/>
<path d="M50.8406 53.8337V60.9036C51.9291 62.8249 53.4998 64.4285 55.3972 65.556V53.7881L50.8406 53.8337Z" fill="white"/>
<path d="M59.3958 47.9724V67.0839C60.9025 67.3561 62.4457 67.3561 63.9524 67.0839V47.9724H59.3958Z" fill="white"/>
<path d="M59.3958 47.9724V67.0839C60.9025 67.3561 62.4457 67.3561 63.9524 67.0839V47.9724H59.3958Z" fill="white"/>
<path d="M72.6101 60.8922V56.7073H68.0535V65.5218C69.95 64.4031 71.5209 62.807 72.6101 60.8922Z" fill="white"/>
<path d="M72.6101 60.8922V56.7073H68.0535V65.5218C69.95 64.4031 71.5209 62.807 72.6101 60.8922Z" fill="white"/>
</svg>
