<svg width="106" height="115" viewBox="0 0 106 115" fill="none" xmlns="http://www.w3.org/2000/svg">
<path d="M106 85.1299V64.7448L103.751 63.4871L52.9869 92.3092L4.78608 64.9544V53.1374L52.9869 80.2825L106 50.3862V30.3156L103.751 29.0841L52.9869 57.9061L6.77375 31.7043L52.9869 5.50239L90.3079 26.6211L93.1063 25.049V22.6908L52.9869 0L0 29.9749V32.9357L52.9869 62.8845L101.188 35.6345V47.5826L52.9869 75.0421L2.22304 46.1415L0 47.373V67.758L52.9869 97.6282L101.188 70.4568V82.3263L52.9869 109.786L2.22304 80.8852L0 82.1167V85.1299L52.9869 115L106 85.1299Z" fill="#FF3621"/>
</svg>
