<svg width="114" height="114" viewBox="0 0 114 114" fill="none" xmlns="http://www.w3.org/2000/svg">
<path d="M56.8306 86.9034L104.568 97.1944V16.2363L56.8306 26.5273V86.9034Z" fill="#205B97"/>
<path d="M104.567 16.2363L113.66 20.3527V93.078L104.567 97.1944V16.2363ZM56.83 86.9034L9.0929 97.1944V16.2363L56.83 26.5273V86.9034Z" fill="#5193CE"/>
<path d="M9.09278 16.2363L0 20.3527V93.078L9.09278 97.1944V16.2363Z" fill="#205B97"/>
<path d="M68.9543 113.66L87.1397 105.427V8.23281L68.9543 0L63.3945 53.972L68.9543 113.66Z" fill="#5193CE"/>
<path d="M44.7024 113.66L26.5168 105.427V8.23281L44.7024 0L50.2622 53.972L44.7024 113.66Z" fill="#205B97"/>
<path d="M44.7031 0H69.2014V113.431H44.7031V0Z" fill="#2E73B7"/>
</svg>
