<svg width="125" height="125" viewBox="0 0 125 125" fill="none" xmlns="http://www.w3.org/2000/svg">
<circle cx="62.5" cy="62.5" r="62.5" fill="#821DD7"/>
<path fill-rule="evenodd" clip-rule="evenodd" d="M88.8404 63.947C88.9272 60.5804 88.4667 57.3527 87.1552 54.395C84.5667 48.5749 80.0412 45.304 73.3009 45.1039C69.9654 44.9995 66.5168 45.7737 63.4508 47.444C63.3479 47.5013 63.245 47.5511 63.1372 47.6032C63.0811 47.6303 63.0237 47.658 62.9644 47.6878C62.9644 47.6583 62.9628 47.6382 62.9616 47.6235C62.9601 47.6034 62.9593 47.5934 62.9644 47.5834C62.9644 47.5834 65.7526 37.1178 67.1509 26.7653C67.4378 24.3817 65.7786 22.3721 63.3987 22.2677C61.3054 22.1807 59.4899 23.7031 59.2207 25.7823C57.4313 39.6145 53.2967 56.6307 49.0318 68.6188C46.7473 75.0389 42.4825 80.4064 36.4456 84.13C36.2111 84.2779 35.8897 84.4518 35.5336 84.6259C33.6487 85.5741 32.754 87.7836 33.4923 89.7672C34.3436 92.064 36.9928 93.1252 39.1817 92.0464C42.7604 90.2892 46.009 87.9489 48.8407 84.8868C48.8957 84.8271 48.9532 84.7674 49.0143 84.7039C49.069 84.6471 49.1266 84.5872 49.1881 84.5215C49.2325 84.6356 49.2676 84.7359 49.3002 84.829C49.3123 84.8637 49.324 84.8973 49.3358 84.9303C50.3955 87.888 52.2109 90.524 54.756 92.3249C57.883 94.5432 61.5658 95.4305 65.5614 95.535C81.1529 95.535 88.8404 78.1095 88.8404 63.947ZM72.5895 83.556C77.1671 79.1192 79.5384 73.8212 80.4677 67.3661L80.4591 67.3749C80.4628 67.1973 80.4686 66.9964 80.475 66.7772C80.4994 65.9437 80.5315 64.846 80.4765 63.7645C80.355 61.3809 79.7989 59.1538 78.5656 57.2138C76.2638 53.6034 71.3648 52.5769 67.1692 54.8563C65.4496 55.7958 63.9555 57.0485 62.6873 58.5535C57.6147 64.5563 55.5647 71.2114 56.3551 78.3971C56.6417 80.946 57.58 83.1993 59.3779 84.9479C61.5582 87.0617 64.2421 87.6794 67.4473 86.7138C69.4017 86.1223 71.0868 84.9999 72.5895 83.556Z" fill="white"/>
<path fill-rule="evenodd" clip-rule="evenodd" d="M62.7682 19.8497C39.065 19.8497 19.8498 39.0649 19.8498 62.7681C19.8498 86.4713 39.065 105.687 62.7682 105.687C86.4715 105.687 105.687 86.4713 105.687 62.7681C105.687 39.0649 86.4715 19.8497 62.7682 19.8497ZM10.7296 62.7681C10.7296 34.028 34.0281 10.7295 62.7682 10.7295C91.5084 10.7295 114.807 34.028 114.807 62.7681C114.807 91.5083 91.5084 114.807 62.7682 114.807C34.0281 114.807 10.7296 91.5083 10.7296 62.7681Z" fill="white"/>
</svg>
