<svg width="77" height="125" viewBox="0 0 77 125" fill="none" xmlns="http://www.w3.org/2000/svg">
<path d="M60.0338 69.2344C55.219 69.2344 50.9024 71.391 47.9465 74.7863L40.372 69.3652C41.1761 67.1271 41.6378 64.724 41.6378 62.2086C41.6378 59.7368 41.1922 57.3739 40.4146 55.1689L47.972 49.8053C50.9277 53.1835 55.2329 55.3283 60.0338 55.3283C68.9206 55.3283 76.1518 48.0189 76.1518 39.0332C76.1518 30.0475 68.9206 22.7381 60.0338 22.7381C51.1469 22.7381 43.9158 30.0475 43.9158 39.0332C43.9158 40.6416 44.1561 42.1925 44.5875 43.6613L37.0249 49.0276C33.8658 45.0654 29.3172 42.2989 24.1348 41.4544V32.2399C31.4358 30.6896 36.9369 24.1314 36.9369 16.2951C36.9369 7.3094 29.7057 0 20.8189 0C11.932 0 4.70088 7.3094 4.70088 16.2951C4.70088 24.0265 10.0595 30.5037 17.2145 32.1647V41.499C7.44978 43.2318 0 51.8473 0 62.2086C0 72.6204 7.52356 81.2675 17.3587 82.9414V92.7977C10.1306 94.404 4.70088 100.921 4.70088 108.705C4.70088 117.691 11.932 125 20.8189 125C29.7057 125 36.9369 117.691 36.9369 108.705C36.9369 100.921 31.5072 94.404 24.279 92.7977V82.9411C29.2571 82.0933 33.7607 79.4453 36.9512 75.49L44.5761 80.9463C44.1529 82.4019 43.9158 83.9374 43.9158 85.5295C43.9158 94.5152 51.1469 101.825 60.0338 101.825C68.9206 101.825 76.1518 94.5152 76.1518 85.5295C76.1518 76.5438 68.9206 69.2344 60.0338 69.2344ZM60.0338 31.1326C64.3432 31.1326 67.8482 34.6777 67.8482 39.0332C67.8482 43.3888 64.3432 46.9336 60.0338 46.9336C55.7243 46.9336 52.2193 43.3888 52.2193 39.0332C52.2193 34.6777 55.7243 31.1326 60.0338 31.1326ZM13.0041 16.2951C13.0041 11.9395 16.5095 8.39476 20.8189 8.39476C25.1283 8.39476 28.6334 11.9395 28.6334 16.2951C28.6334 20.6507 25.1283 24.1955 20.8189 24.1955C16.5095 24.1955 13.0041 20.6507 13.0041 16.2951ZM28.6334 108.705C28.6334 113.06 25.1283 116.605 20.8189 116.605C16.5095 116.605 13.0041 113.06 13.0041 108.705C13.0041 104.349 16.5095 100.805 20.8189 100.805C25.1283 100.805 28.6334 104.349 28.6334 108.705ZM20.8183 73.227C14.8079 73.227 9.91847 68.2847 9.91847 62.2086C9.91847 56.1322 14.8079 51.189 20.8183 51.189C26.8283 51.189 31.7178 56.1322 31.7178 62.2086C31.7178 68.2847 26.8283 73.227 20.8183 73.227ZM60.0338 93.4302C55.7243 93.4302 52.2193 89.8851 52.2193 85.5295C52.2193 81.1739 55.7243 77.6292 60.0338 77.6292C64.3432 77.6292 67.8482 81.1739 67.8482 85.5295C67.8482 89.8851 64.3432 93.4302 60.0338 93.4302Z" fill="#231F20"/>
</svg>
